<svg width="56" height="56" viewBox="0 0 56 56" fill="none" xmlns="http://www.w3.org/2000/svg">
<rect x="8.21741" y="0.707107" width="66.4278" height="10.6212" transform="rotate(45 8.21741 0.707107)" fill="black" stroke="white"/>
<rect x="0.707107" y="47.6786" width="66.4278" height="10.6212" transform="rotate(-45 0.707107 47.6786)" fill="black" stroke="white"/>
<mask id="path-3-inside-1_1_65" fill="white">
<path fill-rule="evenodd" clip-rule="evenodd" d="M27.948 36.1654L19.7306 27.948L27.948 19.7306L36.1654 27.948L27.948 36.1654Z"/>
</mask>
<path fill-rule="evenodd" clip-rule="evenodd" d="M27.948 36.1654L19.7306 27.948L27.948 19.7306L36.1654 27.948L27.948 36.1654Z" fill="black"/>
<path d="M27.948 36.1654L27.2409 36.8725L27.948 37.5796L28.6551 36.8725L27.948 36.1654ZM19.7306 27.948L19.0235 27.2409L18.3164 27.948L19.0235 28.6551L19.7306 27.948ZM27.948 19.7306L28.6551 19.0235L27.948 18.3164L27.2409 19.0235L27.948 19.7306ZM36.1654 27.948L36.8725 28.6551L37.5796 27.948L36.8725 27.2409L36.1654 27.948ZM28.6551 35.4583L20.4377 27.2409L19.0235 28.6551L27.2409 36.8725L28.6551 35.4583ZM20.4377 28.6551L28.6551 20.4377L27.2409 19.0235L19.0235 27.2409L20.4377 28.6551ZM27.2409 20.4377L35.4583 28.6551L36.8725 27.2409L28.6551 19.0235L27.2409 20.4377ZM35.4583 27.2409L27.2409 35.4583L28.6551 36.8725L36.8725 28.6551L35.4583 27.2409Z" fill="white" mask="url(#path-3-inside-1_1_65)"/>
</svg>
