<svg width="59" height="59" viewBox="0 0 59 59" fill="none" xmlns="http://www.w3.org/2000/svg">
<mask id="path-1-inside-1_1_69" fill="white">
<path fill-rule="evenodd" clip-rule="evenodd" d="M29.5 59C45.7924 59 59 45.7924 59 29.5C59 13.2076 45.7924 0 29.5 0C13.2076 0 0 13.2076 0 29.5C0 45.7924 13.2076 59 29.5 59ZM29.5 48.5111C39.9995 48.5111 48.5111 39.9995 48.5111 29.5C48.5111 19.0005 39.9995 10.4889 29.5 10.4889C19.0005 10.4889 10.4889 19.0005 10.4889 29.5C10.4889 39.9995 19.0005 48.5111 29.5 48.5111Z"/>
</mask>
<path fill-rule="evenodd" clip-rule="evenodd" d="M29.5 59C45.7924 59 59 45.7924 59 29.5C59 13.2076 45.7924 0 29.5 0C13.2076 0 0 13.2076 0 29.5C0 45.7924 13.2076 59 29.5 59ZM29.5 48.5111C39.9995 48.5111 48.5111 39.9995 48.5111 29.5C48.5111 19.0005 39.9995 10.4889 29.5 10.4889C19.0005 10.4889 10.4889 19.0005 10.4889 29.5C10.4889 39.9995 19.0005 48.5111 29.5 48.5111Z" fill="black"/>
<path d="M58 29.5C58 45.2401 45.2401 58 29.5 58V60C46.3447 60 60 46.3447 60 29.5H58ZM29.5 1C45.2401 1 58 13.7599 58 29.5H60C60 12.6553 46.3447 -1 29.5 -1V1ZM1 29.5C1 13.7599 13.7599 1 29.5 1V-1C12.6553 -1 -1 12.6553 -1 29.5H1ZM29.5 58C13.7599 58 1 45.2401 1 29.5H-1C-1 46.3447 12.6553 60 29.5 60V58ZM47.5111 29.5C47.5111 39.4473 39.4473 47.5111 29.5 47.5111V49.5111C40.5518 49.5111 49.5111 40.5518 49.5111 29.5H47.5111ZM29.5 11.4889C39.4473 11.4889 47.5111 19.5527 47.5111 29.5H49.5111C49.5111 18.4482 40.5518 9.48889 29.5 9.48889V11.4889ZM11.4889 29.5C11.4889 19.5527 19.5527 11.4889 29.5 11.4889V9.48889C18.4482 9.48889 9.48889 18.4482 9.48889 29.5H11.4889ZM29.5 47.5111C19.5527 47.5111 11.4889 39.4473 11.4889 29.5H9.48889C9.48889 40.5518 18.4482 49.5111 29.5 49.5111V47.5111Z" fill="#F4F4F4" fill-opacity="0.309804" mask="url(#path-1-inside-1_1_69)"/>
</svg>
