<?xml version="1.0" encoding="utf-8"?>
<!-- Generator: Adobe Illustrator 27.8.1, SVG Export Plug-In . SVG Version: 6.00 Build 0)  -->
<svg version="1.1" xmlns="http://www.w3.org/2000/svg" xmlns:xlink="http://www.w3.org/1999/xlink" x="0px" y="0px"
	 viewBox="0 0 200 200" style="enable-background:new 0 0 200 200;" xml:space="preserve">
<style type="text/css">
	.st0{fill:#FFFFFF;}
	.st1{opacity:0.16;fill:#FFFFFF;enable-background:new    ;}
</style>
<g id="Layer_2">
	<path d="M200,155l-15.1-7l-63.4-9.4l-3.3-23.5l7-10.4l6.9,0.3l5.4-3.8l2.1-10.5l0-10.5l-2.5-4.4h5.2l10.1,1.5l10.5,4.9L160,71.5
		c0,0-10-13.3-12.2-15.2s-2.2-1.9-2.2-1.9l-2.3-1.5c0,0,2.2-5,10.7-8.8s8.3-4.4,8.5-3.9c0.2,0.6,6.5-1.3,6.5-1.3s-2.2-2.2-6.3-2.6
		s-4.1-0.3-4.1-0.3l-13.2,1l1.3-3.2l7.8-6.9l10.1-5.3L135,25.5l-28,10.3l-8.9-6.7l-15.4,3l-17.1-7.9l-23-3.4h-5.2l8.6,6.8l8.6,7.8
		l-13.7,1L21,45.2l-2.6,3.3h13.2l9.9,2.9l2.4,0.9L32.8,63.6l-9.4,13.7l0.6,0.9l15.1-5.6l17.3-1.2h4.1l-1.7,11.9l-3.5-3.2l-6.3,2
		l1.5,14.5l3.6,9.1l3.3,0.7l1.4,14.6l11.6,10.7l1,3.1V148l-8.4,6L0,182l0,18h200L200,155z"/>
</g>
<g id="Layer_1">
	<g id="Layer_1_00000129888149203074901160000017915833320753803426_">
		<g id="Layer_1_00000101076737739065147780000016003167956682837155_">
			<g>
				<path class="st0" d="M56.2,95.4c0.5-0.8-0.2-1.8-0.5-2.6c-0.1-0.3-0.3-0.6-0.4-0.9c0.1-0.3,0.2-0.5,0.3-0.8
					c0.4-1.2,1.3-2.8,0.5-3.9C56,87,55.8,86.9,55.6,87c-1,0.6-1,2-1.2,3.1c-0.2-0.3-0.3-0.6-0.5-0.9c-0.1-0.5-1.1-0.3-0.9,0.3
					c0.3,0.9,0.6,1.8,1,2.7c-0.2,0.9-0.4,1.9-0.3,2.9l0,0c0.4-0.4,0.7-0.8,0.9-1.3c0.3,0.8,0.5,1.6,1.3,1.9
					C56,95.6,56.2,95.5,56.2,95.4z"/>
				<path class="st0" d="M134.5,86c-0.3,0-0.7,0.2-0.9,0.5c-0.4,0.7-0.7,1.4-1,2.1c-0.2-0.6-0.6-1.9-0.7-2l0,0
					c-0.1-0.1-0.2-0.2-0.2-0.4c-0.1-0.1-0.3-0.1-0.3,0.1c0.1,1.3,0.3,2.6,0.5,3.9c-0.1,0.3-0.3,0.7-0.4,1c-0.5,1.2-1.1,2.5-1.1,3.8
					l0,0c0.9-0.6,1.5-1.5,2-2.4c0.2,1.2,0.5,2.4,1.1,3.4c0.3,0.5,1.1,0.3,1.1-0.3c0-1.5-0.8-3.1-1.2-4.5v-0.1c0.7-1.2,1.4-2.3,2-3.5
					c0.2-0.4,0.2-0.9-0.2-1.2C135,86,134.9,86,134.5,86z"/>
				<path class="st0" d="M71.6,77.4c-1.7,0.1-3.8,0.1-5.3,1c-2.6,0.5-5.5,2.1-5,4.9c0.7,4.1,7.1,1.7,9.4,0.8
					c1.4-0.6,8.8-3.4,6.2-5.7C75.5,77.2,73.3,77.3,71.6,77.4z M66.8,79.2c0.1,0,0.3,0,0.4,0c-0.1,0.1-0.1,0.2-0.2,0.3
					c-0.3,0-0.5,0.1-0.7,0.3c0-0.1,0-0.2,0.1-0.2l0,0c-0.1,0-0.2,0-0.3,0C66.3,79.4,66.6,79.3,66.8,79.2z M67.2,81.4
					c0.1,0.3,0.3,0.5,0.6,0.6c0.4,0.1,0.7,0.1,1-0.1c-0.7,0.7-1.5,0.1-2-0.6C66.9,81.3,67,81.4,67.2,81.4z M63.8,84.3
					c-1.9-0.6-1.4-2.4-0.5-3.3c0.6-0.6,1.5-1,2.3-1.3h0.1c-0.5,0.5-0.2,2,0.1,2.5c0.6,1.2,1.9,1.8,3.1,1.5
					C67.1,84.3,65.1,84.7,63.8,84.3z M75.7,80.1c-0.2,0.1-0.4,0.3-0.5,0.4c-0.9,0.8-2.3,1.4-3.4,1.9c-0.6,0.3-1.5,0.7-2.4,1
					c0.1-0.1,0.3-0.1,0.4-0.2c1.4-0.9,1.3-2.9,0.1-4c-0.2-0.1-0.4-0.3-0.6-0.4c1.3-0.2,2.5-0.5,3.8-0.5c0.7,0,1.8-0.1,2.3,0.4
					C76,78.9,76.2,79.3,75.7,80.1z"/>
				<path class="st0" d="M102.9,79.9c1.7-0.2,10-1.5,8.5-4.9c-0.6-1.4-2.8-1.4-4-1.5c-1.3-0.1-2.8-0.1-4.2,0.2
					c0.1-0.1,0.2-0.1,0.3-0.2l0,0c-1.9,0.7-4,0.6-5.8,1.5c-1.1,0.5-3.6,2-3.9,3.3C93.1,81.1,101.5,80.1,102.9,79.9z M103.4,75.8
					c-0.1-0.3-0.2-0.5-0.4-0.7c0.1,0,0.1,0,0.2,0.1C103.3,75.4,103.4,75.6,103.4,75.8z M95.4,77.9c0.5-0.7,1.3-1.2,2-1.6
					c0.9-0.5,1.9-0.9,2.8-1.2c-0.1,0.1-0.2,0.2-0.3,0.3c0,0,0,0.1-0.1,0.1c-0.1,0.1-0.2,0.1-0.2,0.2c-0.1-0.1-0.2-0.2-0.3-0.3l0,0
					c0,0.3,0,0.5,0.1,0.8c0,0.2,0,0.4,0.1,0.6s0.2,0.4,0.3,0.5c0.6,1.1,2.3,1.7,3.5,0.8c0.6-0.3,1.1-1,1.1-1.9
					c0-0.7-0.1-1.3-0.4-1.7c0.4-0.1,0.9-0.1,1.4-0.2c1.1-0.1,3.5-0.3,4.4,0.4c2.3,1.8-2.9,3.1-3.8,3.4c-1.6,0.4-3.3,0.7-4.9,0.8
					C99.7,79,98.3,79,97,78.8C95.9,78.9,94.5,79.1,95.4,77.9z"/>
				<path class="st0" d="M80.2,110.2c0,0.2,0,0.4,0.1,0.5c0.4,0.3,1,0.4,1.4,0c0.3-0.3,0.4-0.8,0.3-1.2c0-0.1,0-0.2-0.1-0.3
					c-0.2-0.7-1.1-0.8-1.6-0.4C80,109.2,80,109.8,80.2,110.2C80.2,110.1,80.2,110.2,80.2,110.2z"/>
				<path class="st0" d="M88.5,110.8c0,0.4,0.4,0.7,0.8,0.7c0.5-0.1,0.9-0.4,1-0.9v-0.1c0,0,0,0,0.1-0.1c0.4-0.6,0-1.2-0.5-1.6
					c-0.3-0.2-0.7-0.1-0.9,0.2c-0.1,0.1-0.1,0.3-0.2,0.4c-0.1,0.2-0.2,0.4-0.1,0.7C88.5,110.5,88.4,110.7,88.5,110.8z"/>
				<path class="st0" d="M82.1,124.8c1.2,1.2,2.7,2.5,4.1,3.2c3.1,1.6,5.9-0.3,7.8-2.8c0.1,0.9,0.3,1.8,0.7,2.6c0.4,0.7,1.6,0.8,2,0
					c1-2.1,0.4-4.8,0.1-7.1c-0.2-1.6-0.1-4.2-1.6-5.2c-0.1-0.1-0.2,0-0.3,0c-0.6,0.5-0.8,1.3-1,2.1c-0.4-0.5-0.8-0.9-1.3-1.3
					c-3-2.2-5.5-1-6.4,2.1c-1.2-0.7-2.5-1.5-3.9-1.1c-0.7,0.2-1.2,0.7-1.6,1.3c-0.1-0.6-0.1-1.3-0.2-1.9c-0.1-1.1-1.7-1.1-1.7,0
					c0.2,3.9,1,7.6,2.3,11.3c0.4,1,1.9,0.6,1.6-0.4C82.6,126.7,82.4,125.8,82.1,124.8z M83.7,118.5c1,0.2,1.9,1.2,2.8,1.7
					c0.4,0.2,0.9,0,1-0.4c0.3-1.3,0.5-2.5,2-2.8c1.3-0.2,2.5,0.6,3.4,1.6c1.2,1.4,1.3,2.8,0.8,4.2c-1.8-0.6-4.1-0.3-6-0.4
					c-1.5-0.1-4.2-0.8-5.5,0.2l0,0c0.9,1.4,3.6,1.4,5.1,1.5c1.8,0.1,4,0.4,5.8-0.2c-0.3,0.5-0.7,1-1.2,1.5c-0.9,0.9-1.9,2-3.3,2
					c-1.3,0.1-2.6-0.9-3.5-1.7c-1.4-1.2-3.5-2.6-4.1-4.4c-0.1-0.4-0.1-0.7-0.2-1.1v-0.1C81.6,119,82.4,118.2,83.7,118.5z"/>
				<path class="st0" d="M199.1,150.9c0-0.3-0.2-0.6-0.6-0.7c-9.5-2.2-34.4-7.6-44.1-8.9c-4.6-0.6-9.2-1.2-13.8-1.8
					c-2.5-0.3-5-0.7-7.5-0.9c-2-0.2-4.2-0.6-6.2-0.2l0,0l0,0c0.1-0.7,0.2-1.4,0.1-2.1c-0.2-2.8-2.7-4.4-5.2-5
					c0.2-4.3-0.5-8.7-1.4-12.4c0-0.1-0.1-0.3-0.2-0.4c1.1-2.2,2-4.6,2.9-6.8c0.9-2.3,1.6-4.7,2.2-7c0.3,1.4,1.8,2.6,3.1,3.1
					c2.6,0.9,5.1,0.2,7.1-1.6c4.1-3.9,5.8-10.5,5.9-16.1c0.1-4.6-0.7-9.5-2.7-13.7c8.5,0.5,16.7,2.9,24.2,7c0.7,0.4,1.6-0.3,1.4-1.1
					c-2.6-11.9-9.8-22.5-19.9-29.4c6.5-7.9,16.8-10.7,26.3-13c0.8-0.2,0.8-1.2,0.2-1.6c-1.8-1.3-4-1.6-6.2-2c-2.6-0.4-5.2-0.7-7.8-1
					c-3.5-0.4-7.1-0.5-10.4,0.4c0.4-0.2,0.9-0.4,1.3-0.7c0.4-0.2,0.2-0.9-0.3-0.9h-0.1c4.7-5.5,11.6-8.6,18.2-11.4
					c0.7-0.3,0.3-1.4-0.4-1.4c-10.2,0.1-20.5,1.3-30.4,3.7c-9.4,2.3-18.9,5.5-27.3,10.4c-2.2-2.1-4.6-4.1-7.1-6
					c-0.5-0.4-1-0.3-1.4-0.1c-5.6-1.2-11.5-0.3-16.9,1.9c-3.7-2.1-7.4-4.2-11.3-6c-4-1.8-8.1-3-12.3-3.8s-8.4-1.3-12.6-1.8
					c-4.5-0.5-9.1-1-13.7-0.9c-0.2,0-0.3,0-0.5,0h-0.1l0,0c-0.1,0-0.2,0-0.3,0c-1.4,0.2-1.1,2.5,0.3,2.5c0.3,0,0.7,0,1,0
					c1.1,0.2,2.2,1,3.1,1.4c1,0.5,2,1,3,1.6c2,1.1,4,2.2,5.9,3.4c3,1.9,5.8,4.1,8.1,6.7c-1.9-0.1-3.8,0-5.7,0.2
					c-3.8,0.4-7.6,1.2-11.2,2.4c-7.3,2.4-13.9,6-19.8,10.9c-0.9,0.7,0.1,1.8,1,1.7c8.6-1.2,17.3-0.2,25.4,2.9
					c-9.7,6.7-15.9,16.9-21.5,27c-0.5,0.9,0.5,2.1,1.5,1.5C32.8,74.5,45.6,71.7,58,73c0.1,0,0.2,0,0.3,0c-0.3,2.7-0.6,5.5-0.8,8.2
					c-1.2-2.1-3.3-3.3-5.9-2.3c-3.9,1.5-4.6,6-4.2,9.7c0.5,4.6,1.6,9.2,3.1,13.6c0.5,1.6,1,3.8,2.3,5c0.9,0.8,2.1,1,3.1,0.7
					c-0.1,4.3-0.1,8.7,1.5,12.6c2.3,5.9,7.5,10.2,13.3,12.5v0.1c0,0.1,0.1,0.2,0.1,0.3c-0.8,3.2-0.4,6.9-0.4,10.2
					c0,1.6,0,3.2,0.1,4.8c-0.1-0.2-0.4-0.3-0.6-0.2c-1.5,0.2-2.6,1.3-3.3,2.7l0,0c-1.8-0.1-3.9,1.2-5.5,1.9
					c-2.2,0.9-4.3,1.7-6.5,2.6c-1.9,0.8-3.7,1.5-5.6,2.3c-0.6,0.2-1.2,0.5-1.8,0.7c-0.9,0.3-1.7,0.7-2.5,1c-1.4,0.6-2.8,1.1-4.2,1.7
					c-4.7,1.8-9.4,3.7-14,5.5c-2.1,0.8-4.2,1.7-6.2,2.5c-1.8,0.7-19.4,7-20.2,8.9c-0.2,0.4,0,0.9,0.4,1.1c2,0.7,19.3-6.1,21.1-6.8
					c2.1-0.9,4.2-1.7,6.3-2.5c4.8-1.9,9.6-3.8,14.3-5.7c4.8-1.9,9.6-3.8,14.3-5.8c2.1-0.9,4.2-1.8,6.2-2.8c0.9-0.4,2-0.9,3-1.4
					c-0.2,2.4,0.4,4.9,1.9,6.1c2.3,1.9,5.9,2.2,8.8,2.5c3.4,0.4,6.9,0.4,10.3,0.1c7-0.7,13.7-2.7,20-5.6c5.9-2.7,12.3-6.4,16.5-11.5
					c1.3-1.6,2.5-3.5,3.2-5.6c0.3,0.3,0.7,0.4,1.2,0.3c4.2,1.3,8.5,2.3,12.8,3.3c4.6,1.1,9.3,2.1,14,3.1c9.3,1.9,33.7,7.6,43.1,8.7
					C200.2,155.6,200.7,152.4,199.1,150.9z M121.9,131.8L121.9,131.8l-0.1-0.1C121.8,131.8,121.8,131.8,121.9,131.8z M139.7,90.7
					c-0.2,4.2-1.4,8.5-4.5,11.5c-2.9,2.8-6,1.4-9.3,0.6h-0.1c1.7-6.8,2.6-14,2.6-20.9c0-2.3-0.1-4.6-0.4-6.9c0.4,0.1,0.7,0,1-0.3
					c0.5-0.5,0.7-1.3,1.3-1.7c0.9-0.6,1.9-0.3,2.8,0.3c1.7,1.1,2.7,3.3,3.6,5C138.6,82.4,139.9,86.3,139.7,90.7z M161.9,80.9
					c-7.3-3.6-15.2-5.8-23.3-6.3c-0.4,0-0.6,0.1-0.8,0.4c-0.4-0.6-0.8-1.3-1.3-1.9c-1.4-1.9-3.5-3.4-6-3c-1,0.2-2.3,0.9-3,1.8
					c-0.9-5.1-2.5-10-4.7-14.7c0.1,0,0.1,0,0.2,0c5.6-1.5,11.1-3.1,16.8-3.8c-2,1-3.9,2-5.8,3.2c-1.5,0.9-3,1.7-4.4,2.6l0,0l0,0l0,0
					h-0.1c-1,0.7-1.8,1.4-1.8,2.7c0,0.3,0.2,0.5,0.5,0.5c1.7-0.1,3.3-0.2,5-0.3c0.8,0.8,1.6,1.7,2.5,2.5c-0.1,0-0.1,0.1-0.2,0.1
					c-1.1,0.8-2.2,2.1-1.2,3.4c1.2,1.6,4.2,2.3,6,3c2.8,1.1,5.7,2,8.7,2.5c0.7,0.1,1.1-0.9,0.3-1.2c-2.2-0.7-4.5-1.3-6.7-2
					c-1-0.3-2-0.7-3-1.1c-0.8-0.3-2.9-0.9-3.6-1.6c-1-0.9-0.3-1.7,0.6-2.3c0.3,0.2,0.7,0.5,1,0.7c0.4,0.2,0.9,0.2,1.2-0.2l0.1-0.1
					c0.3-0.4,0.4-0.9,0-1.3c-0.1-0.1-0.2-0.1-0.3-0.2c0.1-0.1,0.2-0.1,0.3-0.2c1.2-0.7,2.2-1.4,2.9-2.6c0.2-0.4-0.1-0.9-0.5-0.9
					c-2.7,0.1-5.4,0.2-8,0.3c-0.9-0.6-1.7-1.1-2.7-1.5c0.7-0.4,1.5-0.8,2-1.1c1-0.6,2-1.3,3.1-1.9c2-1.2,4.1-2.2,6.2-3.1
					c0.1,0.3,0.2,0.5,0.4,0.7C152,60.2,159,69.9,161.9,80.9z M86.5,89.9c-0.7-1.2-2.2-0.4-2.1,0.9c0.8,5.6-2.8,11.6-8.2,13.4
					c-2.3,0.8-3.6,0.1-5.3-1.5c-1.2-1.1-2.3-2.2-3.4-3.3c-2.4-2.4-4.6-4.9-7-7.4c-0.2-0.2-0.4-0.2-0.6,0c0.6-8.4,1.4-16.8,2.3-25.1
					c0.6-5.1,1.2-10.3,3.3-15c1.8-4.1,4.4-7.8,7.7-10.9c1.7-1.6,3.5-2.9,5.4-4c0.5,1.6,1.3,3.2,1.8,4.7c0.7,2.1,1.4,4.2,2,6.4
					c0.3,0.9,1.4,1,1.9,0.2c3.5-5.1,5.4-11.7,10.9-15.1c0.4-0.2,0.5-0.6,0.5-1c0.9-0.1,1.8-0.1,2.7-0.1c0.1,0.1,0.1,0.1,0.2,0.2
					c11.9,8.7,20.9,21.4,24.8,35.6c-2.8,10-7.9,18.4-15.1,25.9c-3.2,3.4-7.8,9.2-13.2,7.8C90.3,100.2,88.9,93.8,86.5,89.9z
					 M85.3,34.1C85.2,34.1,85.2,34.1,85.3,34.1c-0.6,0.5-0.8,1.3-1,2c-0.1,0.4-0.1,0.7-0.2,1.1c-0.3,0.9-0.6,1.7-0.6,2.6
					c0,0.2,0.1,0.3,0.2,0.4c0,0,0.1,0,0.1,0.1c0.1,0,0.2,0,0.2,0c0.5-0.3,0.4-0.9,0.3-1.4c0-0.6-0.1-1.3,0-1.9
					c0.1-0.3,0.2-0.6,0.4-0.9c0.3-0.5,0.7-1,0.8-1.6C85.6,34.2,85.4,34,85.3,34.1c1.3-0.4,2.5-0.7,3.8-1c-0.4,0.3-0.6,0.8-0.9,1.2
					c-0.5,0.7-0.8,1.3-1.2,2l0,0c0.6-0.5,1.1-1.1,1.6-1.7c0.4-0.5,0.9-0.9,1.1-1.6v-0.1c0.9-0.2,1.8-0.3,2.7-0.4
					c-4,3.3-6.2,8.2-8.6,12.7c-0.6-1.4-1.2-2.8-1.9-4.2c-0.7-1.4-1.5-3.1-2.5-4.5C81.3,35.5,83.2,34.7,85.3,34.1z M122.4,56.3
					c-0.9-1.8-1.8-3.7-2.9-5.4c1.7-0.2,3.3-0.7,4.9-1.2c2.8-0.8,5.5-1.5,8.3-2.3c4.8-1.3,10.1-3.5,15.1-3.4
					c-1.9,1.2-4.3,1.8-6.4,2.6c-2.4,0.9-4.9,1.8-7.2,2.9C130.2,51.2,125.1,52.8,122.4,56.3z M130.5,59.7c0.6,0.4,1.2,0.9,1.7,1.4
					c-1.1,0.1-2.2,0.1-3.3,0.2C129.1,60.7,129.8,60.1,130.5,59.7z M137,63.5c-0.7-0.4-1.4-0.9-2-1.4c1.8-0.1,3.6-0.1,5.3-0.1
					c-0.8,0.8-1.9,1.3-2.9,1.8C137.3,63.6,137.1,63.6,137,63.5z M156.8,37.2c2.3,0.2,4.6,0.6,7,0.9c1.4,0.2,2.8,0.4,4.1,0.8
					c-9.3,2.3-18.7,5.5-25,13l0,0c-6.4,0.4-12.3,2-18.4,3.7c1.4-1.2,3.2-2,4.9-2.9c2.6-1.2,5.2-2.4,7.9-3.5c2.4-1,4.9-1.9,7.4-2.8
					c1.8-0.6,3.5-1.3,5-2.6c0.4-0.3,0-0.8-0.4-0.9c-5.2-0.6-10.5,1.6-15.4,3c-2.6,0.7-5.3,1.5-7.9,2.2c-2.2,0.6-4.6,1.6-7,1.7
					c-0.1-0.2-0.2-0.3-0.3-0.5c0.8-1,2.3-1.8,3.2-2.4c0.7-0.4,1.4-0.8,2.1-1.2c1.8,0.5,3.9,0.1,5.8,0c1.9-0.2,4.1,0,5.7-0.9
					c0.8-0.5,0.6-1.8-0.3-2c-1.9-0.5-4.3,0.3-6.1,0.8c-0.6,0.1-1.2,0.3-1.8,0.5c1.9-0.9,3.8-1.7,5.8-2.5c3.4-1.4,6.7-2.7,10-4.2
					c-0.4,0.7,0.4,1.5,1.2,1.1C148.2,36.5,152.6,36.8,156.8,37.2z M135,26.4c8.6-2,17.5-3.1,26.3-3.3c-6.2,2.7-12.2,6-16.2,11.3
					c-4.4,0.1-8.8,0.9-13.1,2c-2.5,0.6-5,1.3-7.6,1.8c-1.4,0.3-2.8,0.6-4.1,0.9c-0.8,0.1-1.8,0.5-2.8,0.5c2.6-1.4,5.3-2.7,8.1-3.8
					c0.9-0.3,1.7-0.5,2.6-0.7c1.4-0.3,2.8-0.6,4.3-0.9c1.1-0.2,1.7-0.1,2.2-1.1c0.1-0.1,0.1-0.3-0.1-0.4c-0.1-0.1-0.2-0.1-0.3-0.2
					c4.1-1.5,8.3-3,12.2-4.9c0.8-0.4,0.6-1.7-0.3-1.9c-2.8-0.7-5.5,0-8.2,0.8c-3,0.8-5.9,1.7-8.8,2.7c-6,2-11.7,4.5-17.5,7l0,0
					c5.4-2.1,10.9-3.6,16.5-5.2c2.7-0.8,5.4-1.5,8.2-2.1c1.7-0.4,3.4-0.9,5.2-1.2c-8.7,4.1-18.2,6.4-26.5,11.4c-0.5,0.3-0.4,1,0,1.3
					c1.6,1.2,4.2,0.3,5.9-0.1c2.9-0.6,5.8-1.3,8.6-2c4.8-1.2,9.7-2.4,14.6-2.9c-0.1,0.2-0.3,0.4-0.4,0.6c-4.4,2.1-9,3.7-13.4,5.6
					c-2.7,1.1-5.4,2.4-7.9,3.9c-1.2,0.7-3.2,1.7-4.4,3c-3-4.6-6.5-9-10.5-12.8C116.6,32.2,125.5,28.6,135,26.4z M44.9,53.2
					c0.8-0.5,0.5-1.5-0.2-1.9c-7.9-3.3-16.3-4.6-24.8-4c4.6-3.4,9.7-6.2,15.1-8c3.2-1,6.4-1.8,9.7-2.2c1.6-0.2,3.2-0.3,4.8-0.3
					c1.3,0,4.5-0.5,5.5,0.5c0.9,0.9,2.7-0.3,1.9-1.5c-3.1-4.3-7.2-7.7-11.6-10.5c-2.1-1.3-4.3-2.5-6.6-3.7c2.1,0.2,4.3,0.4,6.4,0.6
					c4.4,0.4,8.7,0.9,13,1.8c8,1.6,15.4,4.9,23,7.8c-2.4,1.1-4.7,2.4-6.8,3.9c-7,5.2-11.9,12.8-13.8,21.3c-0.2,0.9-0.4,1.8-0.5,2.6
					c0-0.1-0.1-0.1-0.1-0.2c-0.7-1-1.2-2.2-1.4-3.4c0.2-0.3,0.4-0.6,0.5-1c0.3-0.8,0.2-1.5,0-2c0.9-1.9,2.6-3.7,3.7-5l0.1-0.1
					c0.1,0,0.1,0,0.2,0c0.3,0,0.3-0.4,0-0.4c-0.1,0-0.1,0-0.2,0c0-0.1-0.1-0.1-0.1-0.1c-0.7-0.7-1.4-0.7-2.4-0.6
					c-0.9,0.1-1.8,0.2-2.6,0.4c-3.1-0.5-6.1-1.1-9.2-1.6c-1.5-0.3-3-0.5-4.5-0.8c-1-0.2-3.3-0.2-4.4-0.9c2-1.2,5.5-1,7.6-1.1
					c0.1,0,0.1,0,0.2,0c2.3,0.2,4.6,0.5,6.9,0.7c1.6,0.2,3.3,0.4,4.9,0.7c1.4,0.2,2.6,0.6,4,0.2c0.4-0.1,0.5-0.7,0.1-0.9
					c-1-0.7-2.3-0.9-3.7-1.1c1.1-0.1,2.2-0.1,3.3-0.2c1.5-0.2,3.2-0.3,4.4-1.3c2.5-2.4-1.7-5.2-3.5-6.4c-2.9-1.8-6.3-2.9-9.1-4.9
					c4,0.2,7.8,1.4,11.7,2.4c0.2,0,0.3,0,0.5,0c1.5,0.7,3.9,2.5,5.5,1.6c0.2-0.1,0.3-0.4,0.2-0.6c-0.5-1.9-3.8-2.2-5.4-2.6
					c-0.1-0.1-0.2-0.2-0.3-0.2c-4.8-2-9.8-3.4-14.5-5.5l0,0c2.5,1.1,4.9,2.4,7.3,3.7c-2.3-0.4-4.7-0.5-7-0.3
					c-0.6,0.1-1.1,0.8-0.5,1.3c2.5,2.1,5.5,3.3,8.4,4.8c1.6,0.8,3.2,1.6,4.5,2.8c0.3,0.2,0.8,0.6,1,0.9c0.4,0.3,0.4,0.7,0.1,1.2
					c0.2,0.8-0.1,1.2-0.9,1.3c-1.1,0.3-2.2,0.4-3.3,0.4c-4.5,0.4-8.9,0.2-13.4,0.3c-2.1,0.1-4.3,0.2-6.4,0.5c-1.5,0.2-2.9,0.4-4,1.5
					c-0.2,0.2-0.3,0.6-0.1,0.9c0.2,0.3,0.4,0.5,0.6,0.7c-0.6,0.4-0.5,1.3,0.2,1.5c3.8,1.1,7.6,2.3,11.3,3.6c1.9,0.7,3.9,1.4,5.8,2.3
					c0.6,0.3,1.5,0.8,1.9,1.5c-0.2,0.5-0.3,1.1-0.3,1.6c-0.6,0.7-1.6,1.3-2.1,1.6c-0.1,0.1-0.2,0.1-0.3,0.2
					c-0.6,0.1-1.3,0.2-1.8,0.3c-1.5,0.4-3,0.9-4.6,1.4c-2.7,0.9-5.3,1.8-7.9,3l0,0c3-0.6,5.9-1.5,8.9-2.1c0.3-0.1,0.5-0.1,0.8-0.2
					c-4,1.9-8.2,3.6-11.6,6.6c-1,1-0.3,2,0.5,1.8c1-0.2,2-0.4,3-0.6c-3.6,0.9-7.1,2-10.2,4.2c-0.6,0.4-0.5,1.6,0.4,1.5
					c0.8,0,1.6-0.1,2.4-0.2c-3.7,1.1-7.2,2.6-10.7,4.4C29.7,68,35.7,59,44.9,53.2z M55.5,63.7c-0.1-0.1-0.3-0.2-0.6-0.2
					c-4.1,0.4-8.2,1.1-12.2,1.9c2.4-1.6,5-2.8,7.6-4.1c1.5-0.7,3.1-1.5,4.6-2.4c0.7-0.1,1.5-0.3,2-0.9c0.1-0.1,0.2-0.4,0.2-0.6
					c0.1-0.1,0.2-0.2,0.3-0.3c0,0.1,0,0.1,0,0.2c0.2,0.8,0.6,1.6,1,2.4c0.2,0.4,0.6,0.8,0.8,1.2c0.5,1.2-0.4,1.7-1.4,2.1
					C57.2,63.3,56.3,63.5,55.5,63.7z M48.7,47.4c1.9,0.3,3.9,0.6,5.8,0.9c0,0.3,0.2,0.6,0.6,0.5c0.5-0.1,1-0.1,1.5-0.2
					c0.4,0.1,0.8,0.1,1.2,0.2c0.4,0.1,0.7-0.1,0.9-0.4c0.9-0.1,1.8-0.2,2.7-0.2c-1.1,1.2-2.3,2.6-3.1,4.1c-1.3-1.2-3.5-1.9-4.8-2.5
					c-2.6-1.1-5.3-2-8-2.9C46.5,47.1,47.6,47.2,48.7,47.4z M58,70.6c-6-0.6-11.9-0.3-17.6,0.9c0.7-0.3,1.4-0.6,2.2-0.9
					c0.4-0.2,0.1-0.8-0.3-0.7c-1.9,0.6-3.9,1-5.9,1.2c6-2.7,13-3,19-5.8c0.3-0.1,0.5-0.5,0.5-0.8c0.8-0.1,1.6-0.3,2.3-0.5
					c0.4-0.1,0.8-0.2,1.1-0.4c-0.3,2.4-0.6,4.8-0.8,7.1C58.4,70.7,58.2,70.6,58,70.6z M54.1,102.2c-0.5-1.3-0.9-2.7-1.3-4.1
					c-0.8-2.9-1.4-5.8-1.8-8.7c-0.3-2.3-0.7-5.9,1.6-7.5c1.3-0.9,2.7-0.5,3.8,0.4c0.4,0.3,0.6,0.5,1,0.7c-0.2,2.1-0.4,4.1-0.5,6.2
					c-0.4,5.3-0.7,10.5-0.9,15.8C54.7,105,54.4,103.2,54.1,102.2z M62.7,123.2c-2.7-3.5-3.4-7.7-3.5-12.1c-0.1-5,0.2-10.1,0.5-15.1
					c0.1-1.1,0.1-2.2,0.2-3.2c2.1,3.7,5,7.1,8,10.1c1.3,1.3,2.8,3.1,4.6,3.7c1.6,0.6,3.5,0.1,5-0.5c3-1.2,5.5-3.4,7.1-6.1
					c-0.2,1.3-0.3,2.7-0.4,4c-0.2,1.5-0.3,3-0.5,4.4c-0.1,1.4-0.6,2.8,0.1,4.1c0.3,0.5,1,0.4,1.2,0c0.8-1.1,0.6-2.4,0.6-3.7
					c0.1-1.6,0.1-3.2,0.2-4.8c0.1-2.2,0.2-4.6,0.1-6.8c0.2-0.7,0.4-1.5,0.6-2.2c1.8,3.6,3.6,7.3,7.7,8.7c5.6,1.9,10.3-2.7,13.9-6.3
					c7.1-7.2,15.8-16.4,16.2-27c0.2,1.1,0.5,2.1,0.7,3.2c1.7,9.7-0.1,19.4-2.4,28.8c-1.1,4.3-2.4,8.6-4.3,12.7c-1.8,3.9-3.9,8-7,11
					c-3.2,3.1-7.7,3.7-11.9,4.4c-4.9,0.8-9.8,1.6-14.7,1.6C76.5,132,67.8,129.8,62.7,123.2z M71.9,135.2c0.6,2.5,3.3,4.5,5.4,5.6
					c3.7,1.9,8,2,12.1,2.1c2.3,0,4.5-0.1,6.8,0.2c2.5,0.3,4.7,1.1,7,2.1c1.4,0.6,3.5,1.5,5.5,1.6c-3.5,2.2-7.2,3.9-10.9,5.2
					c-6.3,2.3-14.3,4.5-20.9,2.5c-2.3-0.7-4-1.6-4.2-4.2c-0.1-2-0.1-4-0.3-6c-0.2-3.1-0.1-6.5-0.8-9.6
					C71.7,134.8,71.8,135,71.9,135.2z M99.2,158.1c-6.7,2.2-13.7,3.3-20.7,2.8c-1.8-0.1-3.7-0.4-5.5-0.7c-1.5-0.3-3.4-0.7-4.5-1.9
					c-2.1-2.4-0.5-7.6,2-9c0.1,0,0.1-0.1,0.2-0.1c0,1.3,0,2.7,0.6,3.9c1.1,2.3,4.4,3.3,6.8,3.8c2.9,0.6,5.9,0.4,8.8,0
					c6.2-0.9,12.3-2.8,18-5.6c2.8-1.4,5.4-3,8-4.8c1.1-0.8,2.2-1.5,3.2-2.4c1-0.5,2-1.1,2.8-1.9c1.9-2,2.8-4.3,2.6-7
					c0-0.1,0-0.2,0.1-0.3c0.5,1.2,0.3,2.5,0,3.7c-0.1,0.5-0.3,1-0.4,1.6c-0.2,0.1-0.4,0.3-0.5,0.5c-0.4,0.9-0.9,1.6-1.4,2.4
					c-0.5,0.7,0,1.5,0.7,1.8c0.1,0.4,0.3,0.7,0.6,0.9c-0.8,0.8-1.6,1.5-2.5,2.2C112.3,152.4,105.8,155.8,99.2,158.1z"/>
				<path class="st0" d="M66.1,163.2c-3.1-1.4-7.3-0.8-10.2,1c-1.5,0.9-2.5,2.3-2.8,3.8c-0.4,0.4-0.7,0.7-1,1.1
					c-2.4,2.9-2.9,6.9-0.7,10.1c4.4,6.4,14.2,5.4,18.4-0.7C73.1,173.5,71.8,165.7,66.1,163.2z M64.6,174.3c-0.9,0.7-2.1,1-3.3,0.9
					c-1-0.1-3-0.2-3.6-1c-0.1-0.2,0.3-1.7,0.5-2.3c0.2-0.8,0.4-1.7,0.7-2.5c0.1,0,0.2-0.1,0.3-0.1c1.4-0.6,3.3-1.3,4.8-0.8
					C66.6,169.5,66.7,172.7,64.6,174.3z"/>
			</g>
		</g>
		<g id="Layer_2_00000024003868895038656650000003649857578844047281_">
			<path class="st1" d="M63.6,52.4c0,0,3.9,12,7.6,16.7c3.8,4.7,7,17-2.4,33L58.8,91L63.6,52.4z"/>
			<path class="st1" d="M72,40.6c0,0-1.2,3.6,0,7.9c1.2,4.4,10.9,12,13.1,18.7s3.1,12.4,0.7,23.6c0,0,3.5,7.3,4.8,8.7
				c1.3,1.3,5.3,3.9,7.8,3.1c2.5-0.9,12.8-9.8,17.8-16.2s4.9-6.5,4.9-6.5l3.7-13.2c0,0-5-14.1-9.7-20.1S103,32.3,100.4,31.5
				s-7.2,1.5-8.6,3.1c-1.4,1.7-8.1,13.1-8.1,13.1l-5.2-12.4L72,40.6z"/>
		</g>
	</g>
	<g id="Layer_3">
		<circle class="st0" cx="102.7" cy="76.6" r="7.3"/>
		<circle class="st0" cx="69.3" cy="81.3" r="7.3"/>
	</g>
</g>
</svg>
