<?xml version="1.0" encoding="utf-8"?>
<!-- Generator: Adobe Illustrator 27.8.1, SVG Export Plug-In . SVG Version: 6.00 Build 0)  -->
<svg version="1.1" xmlns="http://www.w3.org/2000/svg" xmlns:xlink="http://www.w3.org/1999/xlink" x="0px" y="0px"
	 viewBox="0 0 200 200" style="enable-background:new 0 0 200 200;" xml:space="preserve">
<style type="text/css">
	.st0{fill:#FFFFFF;}
	.st1{opacity:0.16;fill:#FFFFFF;enable-background:new    ;}
</style>
<g id="Layer_2">
	<path d="M3.5,200l56.4-48.7l7.2-12.9L60,121.9l-4.8-0.7l-5.3-6.6l-2.9-7.2l0.7-4.8l2-0.6l4.4,2.3l1.7-3.1l10-30.8L81.3,58l30.7,3.5
		l7,19.9l1.6,14.1l2.7-0.3l2.1-1.4c0,0,3.6-0.7,3.5,2.8c-0.1,3.5-1.5,12.4-4.2,15.6c-2.7,3.2-5.1,5-7.3,5.1s-1.5,0.2-1.5,0.2l-1,2.9
		l1,14.3l2.9,0.4l2.4,2l0.9,2.2l15.7,5.2l62.4,32.3l0,23.4L3.5,200z"/>
</g>
<g id="Layer_1">
	<g id="Layer_1_00000052806623720091158170000011096877138561974186_">
		<g id="Layer_1_00000175281232529031796590000003765045286898694284_">
			<g>
				<path class="st0" d="M74,118.4c-0.9-0.6-2,0.3-2,1.2c-0.3-0.2-0.5-0.4-0.8-0.6l0,0c0.3,0.2,0.6,0.4,0.8,0.6
					c0,0.3,0.1,0.6,0.4,0.8c1,0.9,2.2,1.5,3.1,2.5c0.8,1,1.5,2.1,2.1,3.2c0.2,0.3,0.3,0.6,0.5,0.9c0.1,0.3,0.7,0.2,0.6-0.2
					c-0.2-1.6-0.8-3.1-1.6-4.5S75.4,119.3,74,118.4z"/>
				<path class="st0" d="M108.1,115.5c-1.5,0.4-2.2,2.4-2.8,3.7c-0.5,1.2-1.5,3-1.1,4.4c0,0.1,0.2,0.1,0.2,0.1
					c0.4-0.4,0.5-0.8,0.8-1.4c0.4-0.9,0.8-1.8,1.3-2.6c0.7-1.2,2.1-2.3,2.2-3.7C108.7,115.6,108.4,115.4,108.1,115.5z"/>
				<path class="st0" d="M90.5,114.3c0.2,0.2,0.5,0,0.7-0.2c0.8-1.1,0.1-2.5-0.2-3.7c-0.3-1.5-0.7-2.8-1.5-4.2l0,0
					c-0.3,1.6-0.2,3.1,0,4.7C89.7,112.2,89.5,113.5,90.5,114.3z"/>
				<path class="st0" d="M94.5,114.7c0.1,0,0.2,0,0.3,0c0.1,0,0.2,0.1,0.3,0.1c0.5,0.1,1-0.2,1.1-0.7c0.1-0.4,0-0.8-0.3-1.1
					c-0.3-0.3-0.8-0.4-1.1-0.3c-0.4,0.1-0.8,0.5-0.9,0.9c-0.1,0.1-0.1,0.1-0.1,0.2c-0.1,0.2,0,0.5,0.1,0.6
					C94,114.6,94.2,114.6,94.5,114.7z"/>
				<path class="st0" d="M52.7,110.9c-0.3-0.1-0.5-0.3-0.8-0.4c-0.1-1.2-0.1-2.4,0.2-3.7l0,0c-0.4,1-0.7,2.1-0.8,3.3
					c-0.4-0.3-0.7-0.5-1.2-0.7l0,0c0.2,0.6,0.3,0.9,0.7,1.3c0.1,0.1,0.3,0.3,0.4,0.4c0,1.4,0.2,2.8,0.9,4.1c0.3,0.5,1,0.1,0.9-0.4
					c-0.3-1-0.6-2-0.8-3c0.7,0.5,1.9,1.3,2.6,0.7c0.1,0,0.1-0.2,0.1-0.2C54.6,111.4,53.4,111.3,52.7,110.9z"/>
				<path class="st0" d="M119.9,108.5c-0.1,0.1,0,0.3,0.2,0.3c1.2-0.2,2.2-0.9,3.1-1.7c0,0.8,0,1.5,0,2.2c0,1,1.6,1,1.5,0
					c-0.1-1.2-0.2-2.4-0.4-3.6c0.8-1,2.2-2.8,1.8-4.2c-0.1-0.3-0.4-0.3-0.6-0.2c-0.5,0.5-0.6,1.2-1,1.9c-0.2,0.3-0.3,0.7-0.5,1
					c-0.2-1-0.5-2.1-0.9-3.1l0,0c0,1.5,0,2.9,0,4.4C122.1,106.7,120.9,107.5,119.9,108.5z"/>
				<path class="st0" d="M113.6,89.2c-2.3-1.4-5-2-7.7-1.5c-2,0.3-4.9,1.4-5.9,3.4c-0.1,0.1-0.1,0.2-0.1,0.3c0,0,0,0,0,0.1l0,0
					c0,0.2,0.1,0.4,0.3,0.4c4.5,1.6,10,2.1,13.5-1.9C113.9,89.7,113.9,89.4,113.6,89.2z M109.3,91.5c0-0.1,0.1-0.3,0.1-0.5
					c0.6-0.7,0.6-1.8,0-2.4c1.1,0.2,2.2,0.6,3.3,1.1c-1.1,1.1-2.3,1.7-3.6,2.1C109.2,91.7,109.2,91.6,109.3,91.5z M100.6,91
					c0.7-0.4,1.3-1,2-1.3c1.1-0.5,2.2-0.9,3.4-1.1c0.3,0,0.6-0.1,0.9-0.1c0,0.2,0,0.4,0,0.6c-0.4,0.4-0.4,1-0.1,1.6
					c0.3,0.5,0.7,0.7,1.2,0.8c0.2,0.2,0.4,0.3,0.7,0.4l0,0C106,92.4,103.1,91.9,100.6,91z"/>
				<path class="st0" d="M80.9,92.5c-5.4-2.9-11.6-0.7-16.5,2.3c-0.6,0-0.8,0.9-0.2,1c5.7,1.3,12,1.4,16.7-2.5
					C81.2,93,81.1,92.6,80.9,92.5z M72.6,93.5c0,0.1,0,0.2,0,0.3c-0.1-0.2-0.2-0.3-0.3-0.5C72.4,93.3,72.5,93.4,72.6,93.5z M74,92.1
					c-0.1,0-0.1,0-0.2,0s-0.2,0-0.3,0h-0.1c0.3,0,0.5-0.1,0.8-0.1C74.1,92,74.1,92.1,74,92.1z M64.6,94.8c2.4-0.8,4.9-1.9,7.4-2.4
					l0,0c-0.2,0.1-0.1,0.4,0,0.5l0.1,0.1c0.1,0.6,0.2,1.2,0.7,1.6s1.2,0.4,1.7,0c0.9-0.5,0.8-1.6,0.2-2.2c0-0.1,0-0.2-0.1-0.3
					c-0.1-0.1-0.2-0.2-0.3-0.2c1.8-0.1,3.6,0.1,5.4,1C75.4,96.2,69.7,95.8,64.6,94.8z"/>
				<path class="st0" d="M95,121.9c-1.9,0-3.7,0.3-5.5,1c-0.9,0.4-2.8,0.8-2.5,2.1v0.1c0.1,0.7,0.9,0.9,1.5,0.8c1-0.1,2-0.6,3-0.8
					c1.2-0.3,2.3-0.5,3.5-0.5C96.8,124.6,96.8,121.9,95,121.9z"/>
				<path class="st0" d="M87.7,115.6c0.2,0,0.3-0.2,0.4-0.3l0.1-0.1c0.1-0.1,0.2-0.2,0.3-0.2c0.1-0.1,0.2-0.4,0.2-0.6
					s-0.1-0.4-0.2-0.6c-0.2-0.1-0.4-0.2-0.6-0.2s-0.4,0.1-0.6,0.2c-0.2,0-0.4,0-0.6,0.2c-0.2,0.1-0.2,0.3-0.2,0.5v0.1
					c0,0.1,0,0.2,0,0.3c0,0.1,0.1,0.2,0.1,0.2s0,0,0-0.1c0.1,0.1,0.1,0.2,0.2,0.3c0.1,0.1,0.3,0.2,0.5,0.2
					C87.5,115.6,87.6,115.6,87.7,115.6z"/>
				<path class="st0" d="M55.2,153.5c-1.5,1-3,2.1-4.4,3.2c-3,2.2-6,4.5-8.9,6.9c-5.9,4.8-32.4,29.2-38,34.4c-1.1,1,0.6,2.7,1.7,1.7
					c5.5-5,31.8-29.2,37.5-33.9c2.8-2.3,5.7-4.6,8.5-6.9c1.4-1.1,2.9-2.3,4.3-3.4c1.6-1.3,2.7-2.6,4-4.2l0,0
					C58.1,151.9,56.7,152.5,55.2,153.5z"/>
				<path class="st0" d="M199.9,175.7c-1-2.8-27.4-16-29.9-17.3c-2.3-1.2-4.6-2.5-6.9-3.7c-4.7-2.5-9.3-5-14-7.5
					c-4.3-2.3-8.7-4.6-13.4-5.8c-2.3-0.6-4.7-1.1-7-1.7c-2-0.4-4.3-1.1-6.3-0.8c-0.8-2.4-2.8-5.4-5.5-4.6c-0.6-4.1-1.3-8.3-1.9-12.4
					l0,0c-0.2,3.8-0.5,7.6-0.8,11.4c-0.2,3.7-0.2,7.3-0.1,11c0.1,3.2,0,6.2-1.6,9c-1.4,2.3-3.7,4-6,5.3c-4.2,2.4-9.4,3.5-14.4,3.5
					c2.5-1,4.7-2.9,6.4-5.2c3.8-5,6.8-10.8,8-17c0.1-0.3-0.4-0.6-0.6-0.2c-0.3,0.6-0.6,1.2-1,1.9c-0.2-0.2-0.6-0.3-0.9,0
					c-1,0.9-1.9,1.9-2.7,3c-0.1,0-0.3,0.1-0.4,0.2c-0.3,0.3-0.6,0.6-0.9,0.8c-0.1-0.2-0.4-0.4-0.7-0.6c0.3-0.2,0.6-0.4,0.9-0.7
					c3.6-2.9,6.5-6.7,8.8-10.7c2.9-4.9,5.3-10.1,7.1-15.5c0.1,0,0.1,0,0.2,0c0.6,0.1,1.3,0,1.9-0.1c0.1,0.1,0.3,0.2,0.5,0.2
					c0.6,0,1.1-0.2,1.6-0.5c0.1,0,0.2,0,0.3,0c0.2,0,0.3-0.2,0.4-0.3c1.8-1.2,3.2-3.4,4.2-5.1c1.8-3.4,3.5-7.4,4-11.2
					c0.3-2.1,0.8-6.8-2-7.7c-1.8-0.6-3.5,0.8-4.7,2.3c1.1-2.9,1.7-7.5-1.2-9.2c-0.2-0.1-0.5-0.1-0.6,0c0.3-0.8,0.3-1.8,0.4-2.5
					c0.1-1.1,0.1-2.2,0-3.2c0.1-0.2,0.2-0.4,0.2-0.6c0.3-1.3,0.4-2.6,0.5-3.9c0.3-2.7,0.4-5.4,0.3-8.2c-0.2-5.4-1.4-10.5-3.1-15.6
					c-0.9-2.6-1.7-5.2-2.7-7.8s-2-5.3-2.2-8.1c-0.5-5.7,3.1-9.6,6.8-13.4c0.5-0.5,0.2-1.5-0.6-1.5c-4.3,0.4-8.1,1.9-11.6,4.2
					c-2.7,1.6-5.1,3.5-7.1,5.8c-2,1.9-3.8,4-5.6,6c-0.2-0.3-0.4-0.7-0.6-1c-2.3-5.7-0.6-12.8,4.4-16.6c0.7-0.5,0.3-1.6-0.6-1.4
					c-1.4,0.3-2.8,0.6-4.1,1.2c-0.2,0-0.5,0.1-0.7,0.2s-0.4,0.2-0.6,0.4c-7.9,3.8-13.2,12-17.5,19.6c-0.2-0.5-0.4-1-0.6-1.5
					c-0.2-0.6-0.4-1.2-0.5-1.9c-0.6-5,3-10.2,5.9-14.3c0.6-0.8-0.4-1.7-1.2-1.5c-8.8,1.7-14,10.1-15.8,18.3C62.8,44.7,63,50.4,63,56
					c0,6.2-0.4,12.3-2.2,18.2c-0.9,3-2.2,6.1-2.9,9.3c-0.5,1.7-0.8,3.4-1.1,5.1c-0.2,0-0.5,0.2-0.6,0.5c-0.3,0.8-0.6,1.5-0.7,2.3
					c-0.2,0-0.3,0.2-0.5,0.4l0,0c-0.8,0.8-1.6,2.5-1.8,2.9c-1,2.9-0.8,6,0.7,8.7c0,0,0,0,0,0.1c-1.1-1.1-2.5-1.8-4-2
					c-2.8-0.9-3.4,3.5-3.4,5.4c0.1,2.6,1,4.9,2.4,7c2,4.6,5.4,8.4,9.7,11c1,2.2,2.2,4.2,3.5,6.2c-0.1,0.1-0.1,0.3-0.1,0.5
					c0.1,3.8,0.8,7.6,1.6,11.2c-0.4,0.1-0.7,0.4-1,0.7c-1.3,0.8-2.1,2.2-2.5,3.7c-0.2,0.4-0.4,0.8-0.4,1.3c-0.2,1.2,0.2,2.5,0.7,3.8
					c0.5,1.7,1.3,3.3,2.3,4.7c4.5,6.4,11.6,11.3,19.3,12.4c4.2,0.6,8.6,0.5,12.8,0.4c4.3-0.1,8.6-0.6,12.6-2.1
					c6.9-2.7,12.6-8.1,14.9-15.1c1.4-4.1,1.3-8.2,0.3-12.4v-0.1c1.5,1.1,3.4,1.6,5.1,2.5c2.2,1.1,4.2,2.3,6.2,3.7
					c4,2.7,8.4,4.9,12.7,7.2c4.6,2.5,9.1,4.9,13.7,7.4c2.2,1.2,4.4,2.4,6.6,3.6c2.4,1.3,28.7,15.2,31.6,14.4
					C199.5,178.1,200.3,176.8,199.9,175.7z M90.9,153.8c0.1,0,0.2,0.1,0.2,0.1c-0.2,0.1-0.4,0.2-0.6,0.4
					C90.6,154.1,90.8,153.9,90.9,153.8z M92,159.8c-0.6,0.3-1.3,0.5-1.9,0.6C90.8,160.3,91.4,160.1,92,159.8z M96.5,147.1
					c-0.1-0.1-0.2-0.1-0.3-0.1c0,0,0-0.1-0.1-0.1c0.3-0.1,0.6-0.3,0.9-0.4C96.9,146.7,96.7,146.9,96.5,147.1z M91,149.3
					C90.9,149.3,90.9,149.3,91,149.3c-0.3-0.2-0.5-0.5-0.8-0.7c0.2,0,0.5-0.1,0.7-0.1C90.8,148.7,90.9,149,91,149.3z M65.3,135.7
					c0-0.2-0.1-0.4-0.1-0.6c0.1,0.2,0.2,0.3,0.4,0.5C65.4,135.6,65.4,135.7,65.3,135.7z M61.5,145.7c-0.1,0-0.2,0.1-0.3,0.1
					c0.1-0.3,0.2-0.5,0.4-0.8C61.5,145.3,61.5,145.5,61.5,145.7z M97.4,143.8c-1.9,1.1-3.9,1.9-6.1,2.1c-2.5,0.3-4.8-0.6-7.1-1.6
					c-4.2-1.9-7.8-5.1-10.8-8.4c-6.7-7.2-11.5-15.9-13.4-25.6c1.3,1.8,3.1,3.8,5.3,4.4c2.6,0.8,5.5-0.6,7.8-1.7
					c2.4-1.2,4.6-2.8,6.5-4.8c1.6-1.7,3.1-3.7,5.1-5c2.4-1.5,4.4,0,6.4,1.5c4.5,3.4,9.9,5.6,15.6,5.4c2.9-0.1,5.7-0.9,8.2-2.4
					c0.8-0.4,1.6-1,2.4-1.7c-0.9,5.1-2.4,10.1-4.3,14.9C109.8,129.3,105.4,139,97.4,143.8z M53.9,118.2c-1.9-2.1-3.9-4.2-5.1-6.7
					c-0.2-0.4-0.4-0.8-0.5-1.2c-0.3-1.1-0.5-2.2-0.6-3.3c-0.1-1.4,0.1-3,1.1-4c0.1,0,0.1,0,0.2,0c0.5-0.7,1-0.7,1.4-0.3
					c1.1,0.3,2.6,2.2,3.3,3c0.1,0.2,0.3,0.3,0.4,0.5v0.1l0,0c0,0,0,0,0-0.1c0.2,0.3,0.4,0.5,0.6,0.8c0,3.3,0.2,6.6,1,9.7
					c0.4,1.7,0.9,3.3,1.5,5C56.1,120.6,55,119.4,53.9,118.2z M77.5,24.2C77.5,24.1,77.5,24.1,77.5,24.2
					C77.5,24.1,77.5,24.1,77.5,24.2C77.5,24.1,77.5,24.1,77.5,24.2z M117.8,100.5c-1.2,0.7-1.9,2-2.9,2.9c-1.1,1-2.5,1.7-3.9,2.3
					c-3,1.1-6.2,1.1-9.2,0.3c-3.2-0.9-5.9-2.7-8.6-4.7c-2.2-1.7-4.7-3.2-7.6-2.7c-5.6,0.9-8.5,7.2-13,10.1c-1.3,0.8-2.8,1.6-4.3,2
					c-1.9,0.5-3,0-4.4-1.3c-1.5-1.3-3.1-2.8-4.5-4.3c-0.3-8,2-16.1,5.2-23.4c0.9-2,1.9-4,3-5.9c1.3-2.3,2.6-4.8,4.4-6.7
					c1.7-1.9,3.8-3.3,6.3-3.8c1.9-0.4,3.5,0,5,0.7c0.7,0.7,1.5,1.1,2.5,1.4c1.8,1,3.7,1.5,5.7,0.8c2.3-0.8,4-2.6,6.1-3.7
					c0.2-0.1,0.4-0.2,0.6-0.3c2.1-0.8,4.2-1.1,6.4-0.2c4.5,2,7.3,7.2,9.3,11.5c2.1,4.6,3.4,9.6,3.9,14.6
					C118.2,93.6,118.2,97,117.8,100.5C118,100.4,117.9,100.4,117.8,100.5z M119,83.5c0-0.1,0-0.1,0-0.2l0,0
					C119,83.4,119,83.4,119,83.5z M116.9,75.5L116.9,75.5C116.9,75.4,116.9,75.4,116.9,75.5C116.9,75.4,116.9,75.5,116.9,75.5z
					 M119.7,88.1L119.7,88.1c0.1,0.7,0.2,1.5,0.2,2.3C119.9,89.6,119.8,88.9,119.7,88.1z M112.9,31.7L112.9,31.7
					c0-0.2,0.1-0.3,0.2-0.5C113,31.4,113,31.5,112.9,31.7z M117.5,24.4c0.1-0.1,0.2-0.2,0.3-0.4c0.1-0.1,0.1-0.2,0-0.2
					c0.1,0,0.2,0,0.3-0.1C117.9,24,117.7,24.2,117.5,24.4L117.5,24.4z M77.3,42C77.3,42,77.3,41.9,77.3,42c0.1-0.3,0.2-0.4,0.3-0.6
					C77.5,41.6,77.4,41.8,77.3,42z M123.9,95c1.1-0.8,2.7-1.9,4-0.3c0.4,0.6,0.5,1.5,0.6,2.1c0.2,2.8-0.6,5.6-1.6,8.2
					c-0.9,2.3-2,4.7-3.3,6.9c-0.6,1-1.2,1.9-2.1,2.7c-0.5,0.5-1,0.8-1.6,1.1c-0.2-0.1-0.5-0.1-0.7,0.1c-0.8,0.6-1.6,0.8-2.5,0.8
					c1.4-4.5,2.5-9,3-13.6c0.2-0.4,0.3-0.8,0.3-1.2c0-0.2,0-0.5-0.1-0.6c0.2-1.9,0.3-3.7,0.3-5.6c0,0.2,0,0.4,0,0.6
					c0,0.7,0.8,1.2,1.4,1c-0.2,0.4-0.5,0.8-0.6,1.1l0,0c0.3-0.5,0.6-0.9,0.9-1.3c0.1-0.1,0.2-0.1,0.2-0.3
					C122.7,96.1,123.3,95.5,123.9,95z M52,117.7c1,1.2,2.1,2.3,3.2,3.5C54.1,120.1,53,119,52,117.7z M119.2,152.6
					c-2.5,5.4-7.1,9.8-12.6,12c-6.2,2.4-13.2,2.2-19.8,2c-3.4-0.1-6.8-0.3-10.1-1.2c-2.7-0.7-5.2-2-7.4-3.7c3.2,1.6,6.9,2.3,10.6,2
					c1.2,0.5,2.4,0.9,3.7,1.2c7.5,1.8,15.1,0.7,22.1-2.4c5.3-2.3,10.5-6.7,11.9-12.6c0.5-2.2,0.3-4.3,0.2-6.5
					c-0.1-2.3-0.2-4.6-0.5-6.8c0-0.3-0.1-0.7-0.2-1.1C123.8,136.2,121.1,148.5,119.2,152.6z"/>
				<path class="st0" d="M144.1,167.6c0.6-0.8,1.2-1.5,1.7-2.3c1.6-2.2,0.6-5.7-1.4-7.2c-2.1-1.6-5.4-1.6-7.3,0.4
					c-0.2,0.2-0.4,0.5-0.7,0.7c-2.1-1.9-4.1-2.7-7-2.2c-1.6,0.3-3.4,2.1-3.7,3.7c-0.5,3,0.3,4.9,2.3,7.1c0.1,0.1,0.1,0.2,0.2,0.2
					c-0.7,0.8-1.4,1.5-2.2,2.3c-2.1,2.2-2.2,5.7,0,7.9c2.1,2.1,5.8,2.2,7.9,0c0.6-0.6,1.1-1.2,1.7-1.8c0.5,0.5,0.9,0.9,1.4,1.3
					c2.3,1.9,5.3,2.3,7.7,0.5s2.9-5,1.5-7.6C145.7,169.7,144.9,168.6,144.1,167.6z"/>
			</g>
			<polygon class="st1" points="67.3,68.5 56.1,98.1 57.8,105.5 64.4,112.8 85.2,59 			"/>
			<polygon class="st1" points="89.1,59 73.5,110.1 85.8,100.5 95.6,104.9 104.5,109.3 115.9,106.7 118.9,101.3 120,74.4 
				104.5,55.5 			"/>
		</g>
		<g id="Layer_2_00000046314975097460892830000002536878406606145971_">
		</g>
		<circle class="st0" cx="71.9" cy="94.2" r="6.5"/>
		<circle class="st0" cx="106.9" cy="90.2" r="6.5"/>
	</g>
</g>
</svg>
