<svg width="82" height="82" viewBox="0 0 82 82" fill="none" xmlns="http://www.w3.org/2000/svg">
<mask id="path-1-inside-1_1_51" fill="white">
<path fill-rule="evenodd" clip-rule="evenodd" d="M41 82C63.6437 82 82 63.6437 82 41C82 18.3563 63.6437 0 41 0C18.3563 0 0 18.3563 0 41C0 63.6437 18.3563 82 41 82ZM41 67.4222C55.5926 67.4222 67.4222 55.5926 67.4222 41C67.4222 26.4074 55.5926 14.5778 41 14.5778C26.4074 14.5778 14.5778 26.4074 14.5778 41C14.5778 55.5926 26.4074 67.4222 41 67.4222Z"/>
</mask>
<path fill-rule="evenodd" clip-rule="evenodd" d="M41 82C63.6437 82 82 63.6437 82 41C82 18.3563 63.6437 0 41 0C18.3563 0 0 18.3563 0 41C0 63.6437 18.3563 82 41 82ZM41 67.4222C55.5926 67.4222 67.4222 55.5926 67.4222 41C67.4222 26.4074 55.5926 14.5778 41 14.5778C26.4074 14.5778 14.5778 26.4074 14.5778 41C14.5778 55.5926 26.4074 67.4222 41 67.4222Z" fill="#F4F4F4"/>
<path d="M81 41C81 63.0914 63.0914 81 41 81V83C64.196 83 83 64.196 83 41H81ZM41 1C63.0914 1 81 18.9086 81 41H83C83 17.804 64.196 -1 41 -1V1ZM1 41C1 18.9086 18.9086 1 41 1V-1C17.804 -1 -1 17.804 -1 41H1ZM41 81C18.9086 81 1 63.0914 1 41H-1C-1 64.196 17.804 83 41 83V81ZM66.4222 41C66.4222 55.0403 55.0403 66.4222 41 66.4222V68.4222C56.1449 68.4222 68.4222 56.1449 68.4222 41H66.4222ZM41 15.5778C55.0403 15.5778 66.4222 26.9597 66.4222 41H68.4222C68.4222 25.8551 56.1449 13.5778 41 13.5778V15.5778ZM15.5778 41C15.5778 26.9597 26.9597 15.5778 41 15.5778V13.5778C25.8551 13.5778 13.5778 25.8551 13.5778 41H15.5778ZM41 66.4222C26.9597 66.4222 15.5778 55.0403 15.5778 41H13.5778C13.5778 56.1449 25.8551 68.4222 41 68.4222V66.4222Z" fill="black" mask="url(#path-1-inside-1_1_51)"/>
</svg>
